<svg width="2495" height="900" viewBox="0 0 2495 900" fill="none" xmlns="http://www.w3.org/2000/svg">
<path fill-rule="evenodd" clip-rule="evenodd" d="M446.447 124.454C447.941 121.58 452.052 121.58 453.546 124.454L666.744 534.779L666.802 534.891L666.858 535.002C705.949 612.6 669.251 684.403 613.267 717.36C585.338 733.801 551.661 741.327 518.827 735.067C494.792 730.485 472.025 718.653 453.022 698.84C451.378 697.125 448.611 697.125 446.966 698.84C427.964 718.653 405.198 730.485 381.163 735.068C348.33 741.328 314.654 733.802 286.726 717.361C230.742 684.404 194.044 612.602 233.131 535.004L233.188 534.892L233.245 534.78L446.447 124.454ZM453.545 211.21C452.051 208.336 447.94 208.336 446.446 211.21L268.801 553.105C240.98 608.465 265.778 658.613 307.018 682.891C327.714 695.074 351.6 699.985 373.672 695.776C395.277 691.657 416.66 678.543 432.868 651.671L446.567 628.956C448.123 626.377 451.862 626.377 453.418 628.956L467.12 651.67C483.329 678.542 504.712 691.656 526.318 695.775C548.391 699.984 572.278 695.073 592.975 682.89C634.22 658.609 659.017 608.451 631.176 553.083L453.545 211.21Z" fill="white"/>
<path fill-rule="evenodd" clip-rule="evenodd" d="M450 0C698.528 0 900 201.472 900 450C900 698.528 698.528 900 450 900C201.472 900 0 698.528 0 450C0 201.472 201.472 0 450 0ZM450 40C223.563 40 40 223.563 40 450C40 676.437 223.563 860 450 860C676.437 860 860 676.437 860 450C860 223.563 676.437 40 450 40Z" fill="white"/>
<path d="M1153.66 337.394C1155.87 337.394 1157.66 339.185 1157.66 341.394V490.481C1157.66 498.853 1156.27 506.926 1153.48 514.7C1150.89 522.474 1146.9 529.351 1141.52 535.331C1136.33 541.112 1129.76 545.696 1121.78 549.085C1113.81 552.673 1104.54 554.468 1093.98 554.468C1077.23 554.468 1063.48 550.58 1052.71 542.807C1042.95 535.622 1036.25 524.52 1032.62 509.503C1032.11 507.41 1033.44 505.337 1035.54 504.84L1062.92 498.343C1065.17 497.81 1067.37 499.295 1068.01 501.512C1069.49 506.586 1071.96 510.783 1075.44 514.103C1080.02 518.288 1085.6 520.382 1092.18 520.382C1102.95 520.382 1110.22 516.793 1114.01 509.617C1118 502.242 1119.99 492.175 1119.99 479.418V341.394C1119.99 339.185 1121.78 337.394 1123.99 337.394H1153.66Z" fill="white"/>
<path fill-rule="evenodd" clip-rule="evenodd" d="M1375.63 332.012C1392.18 331.812 1407.33 334.304 1421.08 339.486C1434.84 344.47 1446.7 351.845 1456.66 361.612C1466.63 371.38 1474.4 383.141 1479.98 396.895C1485.57 410.648 1488.36 425.997 1488.36 442.94C1488.36 459.485 1485.57 474.535 1479.98 488.09C1474.4 501.644 1466.63 513.305 1456.66 523.072C1446.7 532.84 1434.84 540.514 1421.08 546.096C1407.33 551.478 1392.18 554.268 1375.63 554.468C1359.29 554.468 1344.24 551.876 1330.48 546.693C1316.93 541.311 1305.17 533.836 1295.2 524.269C1285.44 514.501 1277.76 502.84 1272.18 489.285C1266.6 475.731 1263.81 460.681 1263.81 444.137C1263.81 427.194 1266.6 411.845 1272.18 398.091C1277.76 384.138 1285.44 372.277 1295.2 362.51C1305.17 352.742 1316.93 345.267 1330.48 340.084C1344.24 334.702 1359.29 332.012 1375.63 332.012ZM1375.93 366.098C1364.97 366.098 1355 368.09 1346.03 372.077C1337.26 375.864 1329.69 381.247 1323.31 388.224C1316.93 395.001 1311.95 402.974 1308.36 412.144C1304.97 421.313 1303.28 431.18 1303.28 441.744C1303.28 453.106 1304.97 463.572 1308.36 473.14C1311.95 482.707 1316.93 490.98 1323.31 497.956C1329.69 504.933 1337.26 510.415 1346.03 514.401C1355 518.388 1364.97 520.382 1375.93 520.382C1386.9 520.382 1396.86 518.388 1405.83 514.401C1414.8 510.415 1422.48 504.933 1428.86 497.956C1435.23 490.979 1440.12 482.707 1443.51 473.14C1447.09 463.572 1448.89 453.106 1448.89 441.744C1448.89 431.18 1447.09 421.313 1443.51 412.144C1440.12 402.974 1435.23 395.001 1428.86 388.224C1422.48 381.247 1414.8 375.864 1405.83 372.077C1396.86 368.091 1386.9 366.098 1375.93 366.098Z" fill="white"/>
<path d="M1613.2 337.394C1614.59 337.394 1615.88 338.113 1616.61 339.293L1664.08 416.226C1665.63 418.751 1669.3 418.76 1670.87 416.243L1718.91 339.276C1719.64 338.106 1720.92 337.394 1722.3 337.394H1757.52C1760.7 337.394 1762.61 340.93 1760.86 343.59L1686.06 457.489C1685.63 458.141 1685.4 458.904 1685.4 459.685V545.085C1685.4 547.294 1683.61 549.085 1681.4 549.085H1651.73C1649.52 549.085 1647.73 547.294 1647.73 545.085V459.685C1647.73 458.904 1647.5 458.141 1647.07 457.489L1572.26 343.59C1570.51 340.93 1572.42 337.394 1575.61 337.394H1613.2Z" fill="white"/>
<path fill-rule="evenodd" clip-rule="evenodd" d="M1938.62 337.394C1946.59 337.394 1954.47 338.391 1962.24 340.384C1970.01 342.178 1976.89 345.267 1982.87 349.652C1989.05 353.838 1994.03 359.321 1997.82 366.098C2001.61 372.875 2003.5 381.048 2003.5 390.615C2003.5 402.575 2000.11 412.443 1993.33 420.217C1986.61 427.929 1977.83 433.483 1966.98 436.879C1966.83 436.927 1966.72 437.071 1966.72 437.232C1966.72 437.419 1966.86 437.576 1967.05 437.6C1973.5 438.419 1979.47 440.299 1984.96 443.239C1990.74 446.03 1995.63 449.718 1999.61 454.303C2003.6 458.688 2006.69 463.871 2008.88 469.851C2011.27 475.631 2012.47 481.91 2012.47 488.688C2012.47 500.249 2010.18 509.916 2005.59 517.69C2001.01 525.265 1994.93 531.445 1987.35 536.229C1979.98 540.813 1971.41 544.102 1961.64 546.096C1952.07 548.089 1942.31 549.085 1932.34 549.085H1860.09C1857.88 549.085 1856.09 547.294 1856.09 545.085V341.394C1856.09 339.185 1857.88 337.394 1860.09 337.394H1938.62ZM1897.77 455.798C1895.56 455.798 1893.77 457.589 1893.77 459.798V512.793C1893.77 515.002 1895.56 516.793 1897.77 516.793H1928.45C1933.24 516.793 1938.32 516.494 1943.7 515.896C1949.28 515.298 1954.37 513.903 1958.95 511.71C1963.53 509.517 1967.32 506.428 1970.31 502.441C1973.3 498.255 1974.8 492.674 1974.8 485.697C1974.8 474.535 1971.11 466.76 1963.73 462.375C1956.56 457.99 1945.3 455.798 1929.95 455.798H1897.77ZM1897.77 369.686C1895.56 369.686 1893.77 371.477 1893.77 373.686V419.506C1893.77 421.715 1895.56 423.506 1897.77 423.506H1928.15C1940.71 423.506 1950.08 421.113 1956.26 416.329C1962.64 411.346 1965.83 404.868 1965.83 396.895C1965.83 387.725 1962.54 380.948 1955.96 376.562C1949.58 371.978 1939.22 369.686 1924.86 369.686H1897.77Z" fill="white"/>
<path d="M2155.41 337.394C2157.62 337.394 2159.41 339.185 2159.41 341.394V510.999C2159.41 513.208 2161.2 514.999 2163.41 514.999H2245.41C2247.62 514.999 2249.41 516.79 2249.41 518.999V545.085C2249.41 547.294 2247.62 549.085 2245.41 549.085H2125.74C2123.53 549.085 2121.74 547.294 2121.74 545.085V341.394C2121.74 339.185 2123.53 337.394 2125.74 337.394H2155.41Z" fill="white"/>
<path d="M2484.78 337.394C2486.98 337.394 2488.78 339.185 2488.78 341.394V367.479C2488.78 369.689 2486.98 371.479 2484.78 371.479H2390.22C2388.01 371.48 2386.22 373.271 2386.22 375.479V419.506C2386.22 421.715 2388.01 423.506 2390.22 423.506H2479.39C2481.6 423.506 2483.39 425.297 2483.39 427.506V453.592C2483.39 455.801 2481.6 457.592 2479.39 457.592H2390.22C2388.01 457.592 2386.22 459.383 2386.22 461.592V510.999C2386.22 513.208 2388.01 514.999 2390.22 514.999H2490.16C2492.37 514.999 2494.16 516.79 2494.16 518.999V545.085C2494.16 547.294 2492.37 549.085 2490.16 549.085H2352.54C2350.34 549.085 2348.54 547.294 2348.54 545.085V341.394C2348.55 339.185 2350.34 337.394 2352.54 337.394H2484.78Z" fill="white"/>
</svg>
