<svg width="2500" height="2500" viewBox="0 0 2500 2500" fill="none" xmlns="http://www.w3.org/2000/svg">
<g clip-path="url(#clip0_732_3061)">
<path d="M1250 0.00244141C559.638 0.00244141 0 559.641 0 1250C0 1940.36 559.638 2500 1250 2500C1940.36 2500 2500 1940.36 2500 1250C2499.99 559.641 1940.35 0.00244141 1250 0.00244141ZM916.496 1854.32H642.046V967.648H916.496V1854.32ZM777.963 851.532C688.331 851.532 615.668 778.277 615.668 687.927C615.668 597.566 688.341 524.316 777.963 524.316C867.585 524.316 940.248 597.566 940.248 687.927C940.253 778.282 867.59 851.532 777.963 851.532ZM1945 1854.32H1671.88V1388.89C1671.88 1261.24 1623.39 1189.98 1522.45 1189.98C1412.59 1189.98 1355.2 1264.19 1355.2 1388.89V1854.32H1091.97V967.648H1355.2V1087.07C1355.2 1087.07 1434.38 940.602 1622.39 940.602C1810.41 940.602 1945 1055.4 1945 1292.89L1945 1854.32Z" fill="white"/>
</g>
<defs>
<clipPath id="clip0_732_3061">
<rect width="2500" height="2500" fill="white"/>
</clipPath>
</defs>
</svg>
