<svg width="256" height="256" viewBox="0 0 256 256" fill="none" xmlns="http://www.w3.org/2000/svg">
<path d="M127.857 1.40674C58.0197 1.40674 1.40662 58.0198 1.40662 127.857C1.40662 197.694 58.0197 254.307 127.857 254.307C197.694 254.307 254.307 197.694 254.307 127.857C254.307 58.0198 197.694 1.40674 127.857 1.40674ZM191.113 164.429C191.113 169.487 187.01 173.589 181.952 173.589H73.7613C68.7033 173.589 64.6007 169.487 64.6007 164.429V112.941L127.857 134.432L191.113 112.944V164.429ZM191.113 99.7933L127.857 121.281L64.6007 99.7933V91.2846C64.6007 86.2266 68.7033 82.124 73.7613 82.124H181.949C187.007 82.124 191.11 86.2266 191.11 91.2846L191.113 99.7933Z" fill="white"/>
</svg>
